<svg width="96" height="96" xmlns="http://www.w3.org/2000/svg" xmlns:xlink="http://www.w3.org/1999/xlink" xml:space="preserve" overflow="hidden"><g transform="translate(-1027 -147)"><path d="M1074.99 157C1054.01 157 1037.01 174.004 1037.01 194.979 1037.01 215.954 1054.01 232.958 1074.99 232.958 1095.96 232.958 1112.96 215.954 1112.96 194.979 1112.96 194.978 1112.96 194.976 1112.96 194.975 1112.97 174.009 1095.98 157.007 1075.02 157 1075.01 157 1075 157 1074.99 157ZM1079.15 211.1 1073.38 211.1 1073.38 183.509C1072.89 183.842 1072.37 184.163 1071.83 184.472 1071.29 184.782 1070.73 185.059 1070.15 185.302 1069.53 185.546 1068.88 185.773 1068.19 185.983 1067.51 186.193 1066.76 186.398 1065.94 186.597L1065.94 181.982C1066.49 181.827 1066.99 181.672 1067.45 181.517 1067.9 181.362 1068.35 181.207 1068.79 181.052 1069.23 180.875 1069.68 180.693 1070.12 180.504 1070.56 180.315 1071.01 180.134 1071.45 179.956 1071.87 179.735 1072.29 179.513 1072.73 179.292 1073.16 179.071 1073.58 178.837 1074.01 178.592 1074.47 178.349 1074.93 178.083 1075.38 177.792 1075.83 177.501 1076.29 177.235 1076.76 176.992L1079.15 176.992Z" fill="#404040"/></g></svg>