<svg width="96" height="96" xmlns="http://www.w3.org/2000/svg" xmlns:xlink="http://www.w3.org/1999/xlink" xml:space="preserve" overflow="hidden"><g transform="translate(-899 -147)"><path d="M946.986 157C926.011 157 909.007 174.004 909.007 194.979 909.007 215.954 926.011 232.958 946.986 232.958 967.961 232.958 984.965 215.954 984.965 194.979 984.965 194.978 984.965 194.977 984.965 194.976 984.972 174.01 967.981 157.007 947.015 157 947.005 157 946.996 157 946.986 157ZM957.844 212.009 936.129 212.009 936.129 208.822C936.109 207.486 936.357 206.16 936.859 204.922 937.351 203.754 938.029 202.673 938.867 201.722 939.759 200.712 940.756 199.8 941.84 199 942.969 198.159 944.187 197.34 945.492 196.543 946.585 195.888 947.622 195.144 948.592 194.318 949.321 193.696 949.969 192.984 950.521 192.2 950.975 191.551 951.307 190.826 951.502 190.058 951.684 189.274 951.773 188.472 951.767 187.667 951.768 186.968 951.656 186.273 951.435 185.609 951.227 184.969 950.894 184.376 950.455 183.866 949.998 183.347 949.431 182.937 948.795 182.666 948.055 182.354 947.258 182.202 946.455 182.218 944.887 182.212 943.34 182.576 941.939 183.281 940.466 184.029 939.112 184.991 937.922 186.136L937.922 180.956C939.072 179.885 940.451 179.09 941.955 178.632 943.578 178.151 945.263 177.915 946.955 177.932 948.306 177.923 949.651 178.125 950.939 178.532 952.125 178.901 953.229 179.492 954.193 180.275 955.13 181.048 955.88 182.025 956.385 183.13 956.935 184.355 957.208 185.687 957.185 187.03 957.197 188.238 957.057 189.442 956.768 190.615 956.485 191.716 956.023 192.763 955.4 193.714 954.706 194.761 953.874 195.71 952.928 196.537 951.763 197.553 950.52 198.474 949.209 199.292 948.013 200.045 946.95 200.743 946.021 201.384 945.179 201.955 944.385 202.594 943.646 203.293 943.045 203.856 942.546 204.519 942.17 205.252 941.832 205.951 941.661 206.718 941.67 207.494L957.84 207.494Z" fill="#404040"/></g></svg>