<svg width="96" height="96" xmlns="http://www.w3.org/2000/svg" xmlns:xlink="http://www.w3.org/1999/xlink" xml:space="preserve" overflow="hidden"><g transform="translate(-797 -147)"><path d="M844.986 157C824.01 156.999 807.006 174.003 807.005 194.979 807.004 215.955 824.008 232.959 844.984 232.96 865.96 232.961 882.964 215.957 882.965 194.981 882.965 194.98 882.965 194.978 882.965 194.977 882.973 174.011 865.982 157.008 845.016 157 845.006 157 844.996 157 844.986 157ZM855.034 206.532C854.335 207.773 853.364 208.841 852.194 209.653 850.927 210.527 849.517 211.173 848.028 211.562 846.398 212 844.716 212.218 843.028 212.21 841.325 212.216 839.624 212.066 837.948 211.761 836.545 211.535 835.188 211.081 833.931 210.417L833.931 205.3C835.266 206.232 836.755 206.918 838.331 207.326 839.916 207.76 841.551 207.983 843.194 207.99 843.985 207.984 844.775 207.906 845.552 207.757 846.375 207.609 847.167 207.323 847.894 206.911 848.615 206.5 849.229 205.926 849.687 205.234 850.188 204.429 850.436 203.492 850.399 202.545 850.428 201.576 850.194 200.618 849.72 199.772 849.258 199.001 848.606 198.361 847.827 197.913 846.94 197.408 845.975 197.055 844.972 196.867 843.796 196.638 842.599 196.527 841.401 196.535L838.315 196.535 838.315 192.285 841.237 192.285C842.302 192.293 843.365 192.192 844.409 191.985 845.293 191.818 846.138 191.486 846.899 191.006 847.579 190.57 848.139 189.971 848.526 189.262 848.935 188.462 849.135 187.571 849.107 186.673 849.14 185.857 848.951 185.048 848.56 184.332 848.218 183.748 847.737 183.257 847.16 182.904 846.592 182.56 845.968 182.318 845.316 182.19 844.682 182.06 844.038 181.993 843.391 181.99 841.997 182.003 840.612 182.205 839.273 182.59 837.878 182.969 836.554 183.574 835.355 184.382L835.355 179.671C836.598 179.012 837.925 178.526 839.3 178.226 840.799 177.898 842.33 177.737 843.864 177.745 845.235 177.742 846.601 177.904 847.933 178.226 849.175 178.517 850.359 179.016 851.433 179.704 852.43 180.346 853.265 181.21 853.874 182.227 854.503 183.327 854.819 184.579 854.786 185.846 854.865 187.838 854.183 189.785 852.878 191.292 851.48 192.779 849.651 193.789 847.648 194.18 848.733 194.292 849.795 194.562 850.802 194.98 851.792 195.384 852.707 195.951 853.509 196.657 854.288 197.346 854.925 198.181 855.384 199.114 855.856 200.08 856.095 201.144 856.084 202.219 856.115 203.724 855.753 205.21 855.034 206.532Z" fill="#404040"/></g></svg>