<svg width="96" height="96" xmlns="http://www.w3.org/2000/svg" xmlns:xlink="http://www.w3.org/1999/xlink" xml:space="preserve" overflow="hidden"><g transform="translate(-692 -143)"><path d="M735.962 189C735.186 190.118 734.422 191.151 733.671 192.1 732.92 193.049 732.134 194 731.313 194.955L741.274 194.955 741.274 180.416C740.233 182.253 739.281 183.864 738.419 185.247 737.557 186.63 736.738 187.881 735.962 189Z" fill="#404040"/><path d="M739.986 153C719.01 152.999 702.006 170.003 702.005 190.979 702.004 211.955 719.008 228.959 739.984 228.96 760.96 228.961 777.964 211.957 777.965 190.981 777.965 190.981 777.965 190.98 777.965 190.98 777.974 170.014 760.985 153.009 740.019 153 740.008 153 739.997 153 739.986 153ZM751.567 199.773 747.018 199.773 747.018 206.912 741.274 206.912 741.274 199.773 725.635 199.773 725.635 195.225C727.184 193.542 728.701 191.771 730.184 189.912 731.667 188.053 733.062 186.166 734.368 184.251 735.674 182.336 736.886 180.433 738.005 178.54 739.124 176.647 740.114 174.816 740.975 173.045L747.018 173.045 747.018 194.959 751.567 194.959Z" fill="#404040"/></g></svg>