<svg width="96" height="96" xmlns="http://www.w3.org/2000/svg" xmlns:xlink="http://www.w3.org/1999/xlink" xml:space="preserve" overflow="hidden"><g transform="translate(-600 -147)"><path d="M647.979 156.995C627.004 156.995 610 173.999 610 194.974 610 215.949 627.004 232.953 647.979 232.953 668.954 232.953 685.958 215.949 685.958 194.974 685.968 174.009 668.98 157.005 648.015 156.995 648.003 156.995 647.991 156.995 647.979 156.995ZM659.211 205.438C658.439 206.774 657.372 207.916 656.09 208.775 654.729 209.678 653.216 210.331 651.625 210.7 649.907 211.114 648.146 211.32 646.379 211.314 642.727 211.314 639.994 210.849 638.179 209.92L638.179 204.907C640.708 206.318 643.55 207.072 646.445 207.1 647.565 207.109 648.681 206.975 649.766 206.7 650.712 206.466 651.606 206.059 652.404 205.5 653.942 204.431 654.835 202.657 654.779 200.785 654.808 199.828 654.548 198.885 654.031 198.079 653.515 197.322 652.834 196.691 652.039 196.236 651.138 195.723 650.158 195.364 649.139 195.174 647.99 194.949 646.822 194.838 645.652 194.842 644.524 194.842 642.454 194.942 639.443 195.142L641.1 177.415 658.6 177.415 658.6 181.864 646.047 181.864 645.184 190.63C645.492 190.608 645.715 190.591 645.848 190.58 645.981 190.569 646.096 190.558 646.195 190.547 646.3 190.535 646.406 190.53 646.512 190.53L647.076 190.53C648.773 190.525 650.466 190.708 652.123 191.078 653.633 191.4 655.072 191.99 656.373 192.821 657.583 193.607 658.586 194.672 659.3 195.926 660.068 197.346 660.448 198.944 660.4 200.558 660.446 202.262 660.036 203.947 659.211 205.438Z" fill="#404040"/></g></svg>