<svg width="96" height="96" xmlns="http://www.w3.org/2000/svg" xmlns:xlink="http://www.w3.org/1999/xlink" xml:space="preserve" overflow="hidden"><g transform="translate(-596 -57)"><path d="M643.979 67C623.004 67 606 84.0038 606 104.979 606 125.954 623.004 142.958 643.979 142.958 664.954 142.958 681.958 125.954 681.958 104.979 681.958 104.978 681.958 104.976 681.958 104.975 681.966 84.0097 664.976 67.0077 644.011 67 644 67 643.99 67 643.979 67ZM655.415 114.344C654.907 115.709 654.122 116.954 653.109 118 652.075 119.043 650.829 119.853 649.456 120.374 647.908 120.958 646.263 121.246 644.609 121.221 642.612 121.284 640.632 120.826 638.865 119.893 637.342 119.052 636.04 117.863 635.065 116.423 634.083 114.951 633.375 113.315 632.973 111.592 632.544 109.82 632.327 108.003 632.327 106.18 632.328 104.632 632.466 103.088 632.741 101.565 633.012 100.034 633.429 98.5331 633.987 97.082 634.531 95.6604 635.238 94.3067 636.094 93.048 636.932 91.8116 637.944 90.7031 639.1 89.757 640.272 88.8046 641.596 88.0579 643.018 87.549 644.586 86.999 646.238 86.7282 647.899 86.749 650.05 86.6692 652.195 87.0321 654.2 87.815L654.2 92.4C652.274 91.4411 650.152 90.9401 648 90.936 646.312 90.8815 644.641 91.2836 643.163 92.1 641.878 92.8471 640.783 93.881 639.963 95.121 639.118 96.42 638.511 97.8591 638.17 99.371 637.795 100.949 637.606 102.564 637.606 104.186L637.706 104.186C638.1 103.505 638.567 102.87 639.1 102.291 639.635 101.712 640.243 101.204 640.909 100.781 641.596 100.344 642.339 100.003 643.118 99.768 643.947 99.52 644.809 99.397 645.674 99.403 647.144 99.3842 648.604 99.6491 649.974 100.183 651.22 100.672 652.355 101.405 653.312 102.341 654.249 103.271 654.984 104.385 655.47 105.612 655.985 106.913 656.243 108.301 656.23 109.7 656.246 111.285 655.97 112.859 655.415 114.344Z" fill="#404040"/><path d="M649.091 105.2C648.502 104.661 647.806 104.252 647.048 104 646.294 103.747 645.503 103.618 644.708 103.618 643.857 103.62 643.013 103.778 642.218 104.083 641.407 104.388 640.658 104.838 640.009 105.411 639.348 105.998 638.807 106.708 638.415 107.5 637.996 108.359 637.785 109.304 637.8 110.26 637.795 111.137 637.946 112.009 638.247 112.833 638.545 113.637 639.006 114.372 639.6 114.991 640.219 115.636 640.965 116.145 641.791 116.486 642.74 116.867 643.757 117.053 644.78 117.033 645.738 117.055 646.688 116.849 647.551 116.433 648.307 116.058 648.975 115.526 649.51 114.872 650.033 114.225 650.433 113.488 650.69 112.697 650.955 111.899 651.09 111.064 651.09 110.224 651.115 109.206 650.929 108.194 650.542 107.252 650.209 106.473 649.714 105.774 649.091 105.2Z" fill="#404040"/></g></svg>