<svg width="96" height="96" xmlns="http://www.w3.org/2000/svg" xmlns:xlink="http://www.w3.org/1999/xlink" xml:space="preserve" overflow="hidden"><g transform="translate(-686 -56)"><path d="M733.979 66C713.004 66 696 83.0038 696 103.979 696 124.954 713.004 141.958 733.979 141.958 754.954 141.958 771.958 124.954 771.958 103.979 771.958 103.978 771.958 103.977 771.958 103.976 771.965 83.0096 754.974 66.0072 734.008 66 733.998 66 733.989 66 733.979 66ZM747.335 90.14C745.807 92.752 744.346 95.3253 742.952 97.86 741.558 100.395 740.291 102.924 739.152 105.447 738.03 107.923 737.039 110.455 736.181 113.034 735.346 115.546 734.691 118.115 734.222 120.72L728.608 120.72C729.005 118.16 729.621 115.638 730.45 113.183 731.294 110.693 732.269 108.249 733.372 105.862 734.489 103.438 735.717 101.014 737.057 98.59 738.397 96.166 739.775 93.7147 741.192 91.236L722.93 91.236 722.93 86.621 747.335 86.621Z" fill="#404040"/></g></svg>