<svg width="96" height="96" xmlns="http://www.w3.org/2000/svg" xmlns:xlink="http://www.w3.org/1999/xlink" xml:space="preserve" overflow="hidden"><g transform="translate(-793 -57)"><path d="M845.92 106.843C845.333 106.297 844.648 105.869 843.9 105.581 843.068 105.263 842.183 105.105 841.292 105.116 840.391 105.103 839.495 105.261 838.653 105.581 837.903 105.868 837.216 106.296 836.628 106.843 836.073 107.361 835.632 107.988 835.333 108.685 835.034 109.382 834.881 110.134 834.884 110.893 834.8 112.548 835.38 114.167 836.495 115.393 837.794 116.601 839.522 117.241 841.295 117.17L841.328 117.17C842.19 117.178 843.046 117.026 843.852 116.721 844.603 116.438 845.287 116.003 845.862 115.443 846.435 114.876 846.887 114.198 847.19 113.451 847.517 112.639 847.68 111.77 847.67 110.894 847.674 110.135 847.521 109.384 847.223 108.686 846.922 107.988 846.478 107.36 845.92 106.843Z" fill="#404040"/><path d="M837.734 99.123C838.689 100.039 839.964 100.545 841.287 100.534 841.943 100.536 842.592 100.406 843.197 100.152 843.787 99.9092 844.327 99.5605 844.791 99.123 845.243 98.6926 845.609 98.1797 845.869 97.612 846.137 97.0292 846.274 96.3945 846.269 95.753 846.279 95.0732 846.143 94.3993 845.869 93.777 845.612 93.2028 845.246 92.6841 844.791 92.25 844.336 91.816 843.8 91.4762 843.213 91.25 842.599 91.0141 841.945 90.8958 841.287 90.901 840.606 90.896 839.93 91.0198 839.295 91.266 838.701 91.4947 838.158 91.8406 837.7 92.283 837.252 92.7225 836.896 93.2476 836.655 93.827 836.397 94.4361 836.267 95.0916 836.272 95.753 836.267 96.3945 836.404 97.0291 836.672 97.612 836.93 98.1768 837.29 98.6891 837.734 99.123Z" fill="#404040"/><path d="M840.979 67C820.003 66.9995 802.999 84.0032 802.998 104.979 802.997 125.955 820.001 142.959 840.977 142.96 861.953 142.961 878.958 125.957 878.958 104.981 878.958 104.98 878.958 104.978 878.958 104.977 878.966 84.0112 861.977 67.0083 841.011 67 841 67 840.99 67 840.979 67ZM852.045 115.774C851.404 116.966 850.522 118.012 849.455 118.845 848.319 119.725 847.031 120.389 845.655 120.804 844.177 121.263 842.637 121.492 841.089 121.485 839.601 121.491 838.119 121.284 836.689 120.871 835.343 120.493 834.081 119.861 832.97 119.011 830.659 117.242 829.342 114.466 829.433 111.557 829.43 110.581 829.586 109.611 829.897 108.685 830.206 107.77 830.654 106.907 831.226 106.129 831.808 105.336 832.508 104.636 833.3 104.053 834.126 103.446 835.037 102.965 836.005 102.626 834.527 101.932 833.256 100.863 832.319 99.526 831.441 98.2528 830.977 96.7396 830.991 95.193 830.977 93.9795 831.251 92.7799 831.791 91.693 832.32 90.645 833.067 89.7223 833.982 88.987 834.952 88.2133 836.055 87.6227 837.236 87.244 838.523 86.8276 839.868 86.6203 841.221 86.63 842.546 86.6228 843.863 86.8302 845.121 87.244 846.293 87.6235 847.389 88.2083 848.357 88.971 849.28 89.7033 850.033 90.6264 850.566 91.677 851.119 92.7903 851.398 94.0199 851.379 95.263 851.385 96.7169 850.976 98.1422 850.2 99.372 849.256 100.773 847.955 101.896 846.431 102.626 847.506 102.983 848.511 103.522 849.403 104.219 850.195 104.843 850.884 105.588 851.444 106.427 851.969 107.219 852.368 108.087 852.627 109 852.88 109.897 853.008 110.824 853.008 111.756 853.029 113.155 852.698 114.537 852.045 115.774Z" fill="#404040"/></g></svg>