<svg width="96" height="96" xmlns="http://www.w3.org/2000/svg" xmlns:xlink="http://www.w3.org/1999/xlink" xml:space="preserve" overflow="hidden"><g transform="translate(-915 -57)"><path d="M968.074 92.981C967.455 92.3365 966.708 91.8278 965.882 91.487 964.933 91.1056 963.917 90.9192 962.894 90.939 961.935 90.9169 960.985 91.1225 960.122 91.539 959.365 91.914 958.698 92.4462 958.163 93.1 957.64 93.7461 957.24 94.4831 956.984 95.274 956.719 96.072 956.584 96.9073 956.584 97.748 956.559 98.766 956.746 99.7781 957.133 100.72 957.463 101.501 957.955 102.202 958.577 102.778 959.166 103.317 959.862 103.726 960.619 103.978 961.373 104.231 962.164 104.36 962.959 104.36 963.811 104.358 964.655 104.201 965.45 103.895 966.26 103.589 967.009 103.139 967.659 102.567 968.32 101.979 968.861 101.269 969.252 100.475 969.669 99.617 969.88 98.673 969.866 97.719 969.869 96.8469 969.717 95.9813 969.418 95.162 969.125 94.35 968.668 93.6075 968.074 92.981Z" fill="#404040"/><path d="M962.979 67C942.003 66.9995 924.999 84.0032 924.998 104.979 924.997 125.955 942.001 142.959 962.977 142.96 983.953 142.961 1000.96 125.957 1000.96 104.981 1000.96 104.981 1000.96 104.98 1000.96 104.98 1000.97 84.0142 983.98 67.0099 963.014 67 963.002 67 962.991 67 962.979 67ZM974.931 106.412C974.659 107.944 974.242 109.447 973.685 110.9 973.141 112.321 972.433 113.675 971.578 114.934 970.739 116.168 969.727 117.275 968.572 118.221 967.401 119.174 966.076 119.92 964.654 120.429 963.086 120.979 961.434 121.25 959.773 121.229 957.619 121.311 955.472 120.949 953.464 120.166L953.464 115.576C955.393 116.535 957.518 117.035 959.673 117.037 961.353 117.087 963.016 116.686 964.488 115.875 965.782 115.133 966.885 114.098 967.708 112.854 968.55 111.559 969.156 110.126 969.5 108.62 969.877 107.037 970.067 105.416 970.065 103.789L969.965 103.789C969.571 104.469 969.104 105.104 968.571 105.682 968.035 106.261 967.427 106.768 966.762 107.192 966.076 107.629 965.332 107.97 964.553 108.205 963.725 108.453 962.864 108.576 962 108.57 960.53 108.59 959.07 108.325 957.7 107.79 956.454 107.302 955.318 106.568 954.362 105.632 953.423 104.702 952.687 103.589 952.2 102.361 951.683 101.062 951.424 99.675 951.436 98.277 951.419 96.6908 951.695 95.115 952.25 93.629 952.758 92.2651 953.544 91.0215 954.557 89.977 955.591 88.9321 956.838 88.1215 958.212 87.6 959.76 87.0157 961.405 86.7283 963.06 86.753 965.056 86.6928 967.034 87.1514 968.8 88.084 970.322 88.9254 971.624 90.1143 972.6 91.554 973.585 93.0249 974.296 94.6615 974.7 96.385 975.128 98.1572 975.345 99.9738 975.346 101.797 975.343 103.344 975.204 104.889 974.931 106.412Z" fill="#404040"/></g></svg>