<svg width="96" height="96" xmlns="http://www.w3.org/2000/svg" xmlns:xlink="http://www.w3.org/1999/xlink" xml:space="preserve" overflow="hidden"><g transform="translate(-61 -429)"><path d="M125 497 125 489 91 489C89.9 489 89 488.1 89 487L89 467C89 465.9 89.9 465 91 465L125 465 125 457C125 454.8 123.2 453 121 453L117.5 453C117.2 453 117 452.8 117 452.5L117 449.5C117 449.2 117.2 449 117.5 449L120 449C120.6 449 121 448.6 121 448L121 441C121 438.8 119.2 437 117 437L89 437C86.8 437 85 438.8 85 441L85 448C85 448.6 85.4 449 86 449L88.5 449C88.8 449 89 449.2 89 449.5L89 452.5C89 452.8 88.8 453 88.5 453L85 453C82.8 453 81 454.8 81 457L81 505C81 507.2 82.8 509 85 509L99 509C99 502.4 104.4 497 111 497L125 497Z" fill="#0F9ED5"/><path d="M93 470 93 484C93 484.6 93.4 485 94 485L125 485 125 469 94 469C93.4 469 93 469.4 93 470Z" fill="#0F9ED5"/><path d="M120 513 111 513C108.8 513 107 511.2 107 509 107 506.8 108.8 505 111 505L120 505 120 513ZM129 501 111 501C106.6 501 103 504.6 103 509 103 513.4 106.6 517 111 517L129 517C133.4 517 137 513.4 137 509 137 504.6 133.4 501 129 501Z" fill="#0F9ED5"/></g></svg>