<svg width="96" height="96" xmlns="http://www.w3.org/2000/svg" xmlns:xlink="http://www.w3.org/1999/xlink" xml:space="preserve" overflow="hidden"><g transform="translate(-9 -420)"><path d="M73 488 73 480 39 480C37.9 480 37 479.1 37 478L37 458C37 456.9 37.9 456 39 456L73 456 73 448C73 445.8 71.2 444 69 444L65.5 444C65.2 444 65 443.8 65 443.5L65 440.5C65 440.2 65.2 440 65.5 440L68 440C68.6 440 69 439.6 69 439L69 432C69 429.8 67.2 428 65 428L37 428C34.8 428 33 429.8 33 432L33 439C33 439.6 33.4 440 34 440L36.5 440C36.8 440 37 440.2 37 440.5L37 443.5C37 443.8 36.8 444 36.5 444L33 444C30.8 444 29 445.8 29 448L29 496C29 498.2 30.8 500 33 500L47 500C47 493.4 52.4 488 59 488L73 488Z" fill="#2980B9"/><path d="M41 461 41 475C41 475.6 41.4 476 42 476L73 476 73 460 42 460C41.4 460 41 460.4 41 461Z" fill="#2980B9"/><path d="M68 504 59 504C56.8 504 55 502.2 55 500 55 497.8 56.8 496 59 496L68 496 68 504ZM77 492 59 492C54.6 492 51 495.6 51 500 51 504.4 54.6 508 59 508L77 508C81.4 508 85 504.4 85 500 85 495.6 81.4 492 77 492Z" fill="#2980B9"/></g></svg>