<svg width="96" height="96" xmlns="http://www.w3.org/2000/svg" xmlns:xlink="http://www.w3.org/1999/xlink" xml:space="preserve" overflow="hidden"><g transform="translate(-9 -529)"><path d="M42 559.8C42 564.771 37.9706 568.8 33 568.8 28.0294 568.8 24 564.771 24 559.8 24 554.829 28.0294 550.8 33 550.8 37.9706 550.8 42 554.829 42 559.8Z" fill="#28B463"/><path d="M90 559.8C90 564.771 85.9706 568.8 81 568.8 76.0294 568.8 72 564.771 72 559.8 72 554.829 76.0294 550.8 81 550.8 85.9706 550.8 90 554.829 90 559.8Z" fill="#28B463"/><path d="M75 603.2 75 594.2C75 592.8 74.4 591.4 73.2 590.6 70.8 588.6 67.6 587.2 64.4 586.4 62.2 585.8 59.6 585.2 57 585.2 54.6 585.2 52 585.6 49.6 586.4 46.4 587.2 43.4 588.8 40.8 590.6 39.6 591.6 39 592.8 39 594.2L39 603.2 75 603.2Z" fill="#28B463"/><path d="M66 573.8C66 578.771 61.9706 582.8 57 582.8 52.0294 582.8 48 578.771 48 573.8 48 568.829 52.0294 564.8 57 564.8 61.9706 564.8 66 568.829 66 573.8Z" fill="#28B463"/><path d="M97.2 576.6C94.8 574.6 91.6 573.2 88.4 572.4 86.2 571.8 83.6 571.2 81 571.2 78.6 571.2 76 571.6 73.6 572.4 72.4 572.8 71.2 573.2 70 573.8L70 574C70 577.4 68.6 580.6 66.4 582.8 70.2 584 73.2 585.6 75.6 587.4 76.2 588 76.8 588.4 77.2 589.2L99 589.2 99 580.2C99 578.8 98.4 577.4 97.2 576.6Z" fill="#28B463"/><path d="M38.4 587.4 38.4 587.4C41.2 585.4 44.4 583.8 47.6 582.8 45.4 580.4 44 577.4 44 574 44 573.8 44 573.8 44 573.6 42.8 573.2 41.6 572.6 40.4 572.4 38.2 571.8 35.6 571.2 33 571.2 30.6 571.2 28 571.6 25.6 572.4 22.4 573.4 19.4 574.8 16.8 576.6 15.6 577.4 15 578.8 15 580.2L15 589.2 36.6 589.2C37.2 588.4 37.6 588 38.4 587.4Z" fill="#28B463"/></g></svg>