<svg width="96" height="96" xmlns="http://www.w3.org/2000/svg" xmlns:xlink="http://www.w3.org/1999/xlink" xml:space="preserve" overflow="hidden"><g transform="translate(-226 -216)"><path d="M316.6 252.3 311.4 250.4 311.4 239.5 316.6 237.3 281.4 224.3 238.6 239.3C234.5 241.3 234.4 246.8 234.4 251.3 234.4 252.8 234.6 254.3 234.9 255.7 231.5 257.9 231.4 263 231.4 267.3 231.4 270.8 232.2 274 234.4 276 233.9 277.7 234.2 279.8 234.2 282.3 234.2 286.8 235.4 290.9 239.4 292.3L267.2 303.8 316.4 283.4 311.2 281.5 311.2 270.5 316.4 268.3 308.4 265.3 308.4 255.7 316.6 252.3ZM239.8 246.3 267.6 257.2 307.5 241.1 307.5 249.7 267.6 266.3 239.8 255.3 239.8 246.3ZM307.3 280.8 267.4 297.3 239.5 286.3 239.5 278.5 264.4 288.7 307.4 271.7 307.3 280.8ZM304.5 265.8 264.6 282.3 236.8 271.3 236.8 262.3 265.4 273.7 304.6 257.3 304.6 265.8Z" fill="#002060"/></g></svg>