<svg width="96" height="96" xmlns="http://www.w3.org/2000/svg" xmlns:xlink="http://www.w3.org/1999/xlink" xml:space="preserve" overflow="hidden"><g transform="translate(-107 -8)"><path d="M185.6 39.4C198.6 24.8 193.9 19.7 193.9 19.7 192.3 18.1 189.8 18.1 188.2 19.7L150.3 57.6 117.3 88.4C115 90.7 115 94.5 117.3 96.9 119.6 99.2 123.4 99.2 125.8 96.9L155.9 63.9C157.4 64.6 161.4 66.6 162.6 65.3L185.6 39.4Z" fill="#D35400"/><path d="M195.8 88.4 169.5 63.5 165.5 68C164.8 68.7 163.6 69.6 161.7 69.7L187.4 96.9C189.8 99.2 193.6 99.2 195.9 96.9 198.1 94.5 198.1 90.7 195.8 88.4Z" fill="#D35400"/><path d="M142.9 55.6C142.9 55.6 144.7 55.2 146.7 55.5L147.5 54.7 154.4 47.8C154.1 45.9 154.5 44 154.5 44 155.2 39.7 153.5 34.7 148.4 29.6 140 21.2 128 13.4 128 13.4L126.2 15.2 146.4 35.4C147 36 147 36.9 146.4 37.5 145.8 38.1 144.9 38.1 144.3 37.5L124.1 17.3 121.3 20.1 141.5 40.3C142.1 40.9 142.1 41.8 141.5 42.4 140.9 43 140 43 139.4 42.4L119.2 22.2 116.4 25 136.6 45.2C137.2 45.8 137.2 46.7 136.6 47.3 136 47.9 135.1 47.9 134.5 47.3L114.2 27.2 112.4 29C112.4 29 120.9 41.8 128.5 49.5 133.6 54.6 138.6 56.3 142.9 55.6Z" fill="#D35400"/></g></svg>