<svg width="330" height="330" xmlns="http://www.w3.org/2000/svg" xmlns:xlink="http://www.w3.org/1999/xlink" xml:space="preserve" overflow="hidden"><defs><clipPath id="clip0"><rect x="737" y="333" width="330" height="330"/></clipPath></defs><g clip-path="url(#clip0)" transform="translate(-737 -333)"><path d="M737 498C737 406.873 810.873 333 902 333 993.127 333 1067 406.873 1067 498 1067 589.127 993.127 663 902 663 810.873 663 737 589.127 737 498ZM794.291 498C794.291 557.486 842.514 605.709 902 605.709 961.486 605.709 1009.71 557.486 1009.71 498 1009.71 438.514 961.486 390.291 902 390.291 842.514 390.291 794.291 438.514 794.291 498Z" fill="#7F7F7F" fill-rule="evenodd"/></g></svg>