<svg width="96" height="96" xmlns="http://www.w3.org/2000/svg" xmlns:xlink="http://www.w3.org/1999/xlink" xml:space="preserve" overflow="hidden"><g transform="translate(7 -305)"><path d="M46.5 360.7C42.9 359.1 39.6 356.7 37 353.5 35.5 351.7 34.3 349.8 33.4 347.7L1 351.9 3.7 373.7C5.2 385.8 16.2 394.3 28.3 392.8 40.4 391.3 48.9 380.3 47.4 368.2L46.5 360.7ZM28.6 358.7C29.2 357.8 30.4 357.5 31.4 358L36.1 360.9C37 361.5 37.3 362.7 36.8 363.7 36.4 364.3 35.8 364.7 35.1 364.7 34.7 364.7 34.4 364.6 34.1 364.4L29.4 361.5C28.4 360.9 28.1 359.7 28.6 358.7M13 364 16.6 359.9C17.3 359.1 18.6 359 19.4 359.7 20.2 360.4 20.3 361.7 19.6 362.5L16 366.6C15.6 367 15.1 367.3 14.5 367.3 14 367.3 13.6 367.1 13.2 366.8 12.4 366.1 12.3 364.8 13 364M38.2 379.4C37.3 380.1 36.1 379.9 35.4 379 33.2 376.1 29.7 374.6 26.1 375.1 22.5 375.5 19.5 377.9 18.1 381.2 17.8 382 17 382.4 16.3 382.4 16 382.4 15.8 382.3 15.5 382.2 14.5 381.8 14 380.6 14.4 379.6 16.4 375 20.7 371.7 25.6 371.1 30.6 370.5 35.5 372.6 38.6 376.6 39.3 377.5 39.1 378.8 38.2 379.4" fill="#900C3F"/><path d="M37.2 313 35.2 334.9C34 347 42.9 357.8 55 358.9 67.1 360 77.8 351.1 78.9 339L80.9 317.1 37.2 313ZM47.1 325.2 52.6 325.7C53.7 325.8 54.5 326.8 54.4 327.9 54.3 328.9 53.4 329.7 52.4 329.7 52.3 329.7 52.3 329.7 52.2 329.7L46.7 329.2C45.6 329.1 44.8 328.1 44.9 327 45 325.9 46 325.1 47.1 325.2M68.6 344.6C65.9 348.3 61.6 350.6 57.1 350.6 56.7 350.6 56.2 350.6 55.8 350.5 50.8 350 46.4 346.9 44.3 342.4 43.8 341.4 44.3 340.2 45.3 339.7 46.3 339.2 47.5 339.7 48 340.7 49.5 344 52.7 346.2 56.2 346.5 59.8 346.8 63.3 345.2 65.4 342.3 66 341.4 67.3 341.2 68.2 341.8 69 342.4 69.2 343.7 68.6 344.6M68.8 331.2C68.7 331.2 68.7 331.2 68.6 331.2L63.1 330.7C62 330.6 61.2 329.6 61.3 328.5 61.4 327.4 62.4 326.6 63.5 326.7L69 327.2C70.1 327.3 70.9 328.3 70.8 329.4 70.7 330.4 69.8 331.2 68.8 331.2" fill="#900C3F"/></g></svg>