<svg width="96" height="96" xmlns="http://www.w3.org/2000/svg" xmlns:xlink="http://www.w3.org/1999/xlink" xml:space="preserve" overflow="hidden"><g transform="translate(-31 -275)"><path d="M84.5 330.7C80.9 329.1 77.6 326.7 75 323.5 73.5 321.7 72.3 319.8 71.4 317.7L39 321.9 41.7 343.7C43.2 355.8 54.2 364.3 66.3 362.8 78.4 361.3 86.9 350.3 85.4 338.2L84.5 330.7ZM66.6 328.7C67.2 327.8 68.4 327.5 69.4 328L74.1 330.9C75 331.5 75.3 332.7 74.8 333.7 74.4 334.3 73.8 334.7 73.1 334.7 72.7 334.7 72.4 334.6 72.1 334.4L67.4 331.5C66.4 330.9 66.1 329.7 66.6 328.7M51 334 54.6 329.9C55.3 329.1 56.6 329 57.4 329.7 58.2 330.4 58.3 331.7 57.6 332.5L54 336.6C53.6 337 53.1 337.3 52.5 337.3 52 337.3 51.6 337.1 51.2 336.8 50.4 336.1 50.3 334.8 51 334M76.2 349.4C75.3 350.1 74.1 349.9 73.4 349 71.2 346.1 67.7 344.6 64.1 345.1 60.5 345.5 57.5 347.9 56.1 351.2 55.8 352 55 352.4 54.3 352.4 54 352.4 53.8 352.3 53.5 352.2 52.5 351.8 52 350.6 52.4 349.6 54.4 345 58.7 341.7 63.6 341.1 68.6 340.5 73.5 342.6 76.6 346.6 77.3 347.5 77.1 348.8 76.2 349.4" fill="#E97132"/><path d="M75.2 283 73.2 304.9C72 317 80.9 327.8 93 328.9 105.1 330 115.8 321.1 116.9 309L118.9 287.1 75.2 283ZM85.1 295.2 90.6 295.7C91.7 295.8 92.5 296.8 92.4 297.9 92.3 298.9 91.4 299.7 90.4 299.7 90.3 299.7 90.3 299.7 90.2 299.7L84.7 299.2C83.6 299.1 82.8 298.1 82.9 297 83 295.9 84 295.1 85.1 295.2M106.6 314.6C103.9 318.3 99.6 320.6 95.1 320.6 94.7 320.6 94.2 320.6 93.8 320.5 88.8 320 84.4 316.9 82.3 312.4 81.8 311.4 82.3 310.2 83.3 309.7 84.3 309.2 85.5 309.7 86 310.7 87.5 314 90.7 316.2 94.2 316.5 97.8 316.8 101.3 315.2 103.4 312.3 104 311.4 105.3 311.2 106.2 311.8 107 312.4 107.2 313.7 106.6 314.6M106.8 301.2C106.7 301.2 106.7 301.2 106.6 301.2L101.1 300.7C100 300.6 99.2 299.6 99.3 298.5 99.4 297.4 100.4 296.6 101.5 296.7L107 297.2C108.1 297.3 108.9 298.3 108.8 299.4 108.7 300.4 107.8 301.2 106.8 301.2" fill="#E97132"/></g></svg>