<svg width="96" height="96" xmlns="http://www.w3.org/2000/svg" xmlns:xlink="http://www.w3.org/1999/xlink" xml:space="preserve" overflow="hidden"><g transform="translate(-9 -624)"><path d="M91.1 646.9 84 645 82.1 637.9 91.1 628.9C85.7 626.9 79.7 628 75.4 631.9 71.2 635.8 69.4 641.7 71 647.2L32.2 686C26.7 684.5 20.8 686.3 17 690.5 13.2 694.7 12 700.7 14 706.1L23 697.1 30 699 31.9 706.1 22.9 715.1C28.3 717.1 34.3 716 38.6 712.1 42.8 708.2 44.6 702.3 43 696.8L81.8 658C87.3 659.5 93.2 657.7 97 653.5 100.8 649.3 102 643.3 100 637.9L91.1 646.9Z" fill="#581845"/></g></svg>