<svg width="96" height="96" xmlns="http://www.w3.org/2000/svg" xmlns:xlink="http://www.w3.org/1999/xlink" xml:space="preserve" overflow="hidden"><g transform="translate(-1037 -57)"><path d="M1084.99 67C1064.01 67 1047.01 84.0038 1047.01 104.979 1047.01 125.954 1064.01 142.958 1084.99 142.958 1105.96 142.958 1122.96 125.954 1122.96 104.979 1122.96 104.978 1122.96 104.976 1122.96 104.975 1122.97 84.0092 1105.98 67.0072 1085.02 67 1085.01 67 1085 67 1084.99 67ZM1103.6 108.36 1088.37 108.36 1088.37 123.594 1081.6 123.594 1081.6 108.356 1066.37 108.356 1066.37 101.594 1081.6 101.594 1081.6 86.356 1088.37 86.356 1088.37 101.594 1103.6 101.594Z" fill="#404040"/></g></svg>