<svg width="96" height="96" xmlns="http://www.w3.org/2000/svg" xmlns:xlink="http://www.w3.org/1999/xlink" xml:space="preserve" overflow="hidden"><g transform="translate(-213 -8)"><path d="M221 28 221 84 301 84 301 28 221 28ZM262.4 62.9C261.6 63.7 260.4 63.7 259.6 62.9L230 34 292.1 34 262.4 62.9ZM246.5 55.7 227 75.3 227 36.6 246.5 55.7ZM249.4 58.5 256.9 65.8C258.1 66.9 259.6 67.5 261.1 67.5 262.6 67.5 264.1 66.9 265.3 65.8L272.8 58.5 292.2 78 229.9 78 249.4 58.5ZM275.5 55.7 295 36.7 295 75.2 275.5 55.7Z" fill="#1F618D"/></g></svg>