<svg width="96" height="96" xmlns="http://www.w3.org/2000/svg" xmlns:xlink="http://www.w3.org/1999/xlink" xml:space="preserve" overflow="hidden"><g transform="translate(-111 -516)"><path d="M129.451 588.216 134.379 596.726 150.804 602.654 145.876 594.145 129.451 588.216Z" fill="#D98880"/><path d="M128 584.502 146.501 591.18 186.146 550.588 186.144 528.555 167.325 521.136 145.339 535.054 128 584.502Z" fill="#D98880"/><path d="M193.406 540.479 189.144 533.118 189.146 550.796 193.408 558.157 193.406 540.479Z" fill="#D98880"/><path d="M193.04 563.507 187.338 553.66 148.768 593.153 154.47 603 193.04 563.507Z" fill="#D98880"/><path d="M135.242 601C134.073 600.966 132.09 602.466 132.006 603.561 131.939 604.699 132.583 605.76 133.624 606.224 134.554 606.443 135.527 606.385 136.424 606.056 137.355 605.631 137.88 604.63 137.7 603.622 137.45 602.6 136.422 601.034 135.242 601Z" fill="#D98880"/><path d="M164.488 603C163.32 602.966 161.336 604.466 161.252 605.561 161.185 606.699 161.829 607.76 162.87 608.224 163.8 608.443 164.773 608.385 165.67 608.056 166.604 607.633 167.131 606.63 166.951 605.621 166.7 604.6 165.668 603.034 164.488 603Z" fill="#D98880"/><path d="M178.6 601.3C177.6 601.888 176.487 603.824 176.823 604.527 177.338 605.295 178.311 605.61 179.178 605.289 180.045 604.936 180.828 604.405 181.478 603.731 182.034 603.106 182.245 602.08 181.653 601.597 180.766 600.948 179.596 600.835 178.6 601.3Z" fill="#D98880"/><path d="M127.137 593.805C126.204 593.493 124.343 593.857 124.08 594.464 123.874 595.221 124.213 596.021 124.9 596.4 125.609 596.757 126.385 596.961 127.178 597 127.888 597.009 128.662 596.572 128.641 595.924 128.563 594.996 127.987 594.185 127.137 593.805Z" fill="#D98880"/><path d="M177.04 589.628C175.34 589.05 171.804 590.167 171.22 591.607 170.636 593.047 171.269 595.286 172.472 595.939 173.743 596.658 175.184 597.021 176.643 596.989 178.131 596.898 179.346 595.766 179.543 594.289 179.6 592.8 178.755 590.213 177.04 589.628Z" fill="#D98880"/></g></svg>