<svg width="96" height="96" xmlns="http://www.w3.org/2000/svg" xmlns:xlink="http://www.w3.org/1999/xlink" xml:space="preserve" overflow="hidden"><g transform="translate(-110 -414)"><path d="M158 434C159.1 434 160 434.9 160 436 160 437.1 159.1 438 158 438 156.9 438 156 437.1 156 436 156 434.9 156.9 434 158 434ZM170 494C170 492.9 169.1 492 168 492L161 492 161 441.2C161.9 440.7 162.7 439.9 163.2 439L182.4 439 176.8 468 180.9 468 185.3 445.2 190.9 468 195 468 187.7 439 189 439C190.7 439 192 437.7 192 436 192 434.3 190.7 433 189 433L163.2 433C162.7 432.1 161.9 431.3 161 430.8L161 425C161 423.3 159.7 422 158 422 156.3 422 155 423.3 155 425L155 430.8C154.1 431.3 153.3 432.1 152.8 433L127 433C125.3 433 124 434.3 124 436 124 437.4 125 438.7 126.4 438.9L120.7 468 124.8 468 129.2 445.2 134.9 468 139 468 131.7 439 152.7 439C153.2 439.9 154 440.7 154.9 441.2L154.9 492 147.9 492C146.8 492 145.9 492.9 145.9 494L145.9 496 134 496 134 502 182 502 182 496 170 496 170 494Z" fill="#A569BD"/><path d="M142 471 118 471C118 474.3 123.4 477 130 477 136.6 477 142 474.3 142 471Z" fill="#A569BD"/><path d="M174 471C174 474.3 179.4 477 186 477 192.6 477 198 474.3 198 471L174 471Z" fill="#A569BD"/></g></svg>