<svg width="96" height="96" xmlns="http://www.w3.org/2000/svg" xmlns:xlink="http://www.w3.org/1999/xlink" xml:space="preserve" overflow="hidden"><g transform="translate(-49 -149)"><path d="M114.1 224 114.9 215 126.5 215 125 224 114.1 224ZM67.5 215 79.1 215 79.9 224 69.1 224 67.5 215ZM77 189 77.8 198 64.6 198 63.1 189 77 189ZM96.3 169.9C96.6 169.6 96.9 169.6 97 169.6 97.1 169.6 97.5 169.6 97.7 169.9L110.8 182.9 83.2 182.9 96.3 169.9ZM115.9 202 128.7 202 127.2 211 115.2 211 115.9 202ZM99 211 99 202 111.9 202 111.1 211 99 211ZM99 215 110.8 215 110 224 99 224 99 215ZM95 215 95 224 83.9 224 83.1 215 95 215ZM95 198 81.8 198 81 189 95 189 95 198ZM99 189 113 189 112.2 198 99 198 99 189ZM78.8 211 66.8 211 65.3 202 78.1 202 78.8 211ZM82.1 202 95 202 95 211 82.8 211 82.1 202ZM129.4 198 116.3 198 117.1 189 131 189 129.4 198ZM119.2 183 119.2 183 102 165.7C100.7 164.4 98.9 163.6 97 163.6 95.1 163.6 93.4 164.3 92.1 165.7L74.9 182.9 74.8 183 56 183 63.4 226.7C63.7 228.6 65.4 230 67.3 230L126.5 230C128.4 230 130.1 228.6 130.4 226.7L138 183 119.2 183Z" fill="#A02B93"/></g></svg>