<svg width="96" height="96" xmlns="http://www.w3.org/2000/svg" xmlns:xlink="http://www.w3.org/1999/xlink" xml:space="preserve" overflow="hidden"><g transform="translate(7 -82)"><path d="M58.1 157 58.9 148 70.5 148 69 157 58.1 157ZM11.5 148 23.1 148 23.9 157 13.1 157 11.5 148ZM21 122 21.8 131 8.6 131 7.1 122 21 122ZM40.3 102.9C40.6 102.6 40.9 102.6 41 102.6 41.1 102.6 41.5 102.6 41.7 102.9L54.8 115.9 27.2 115.9 40.3 102.9ZM59.9 135 72.7 135 71.2 144 59.2 144 59.9 135ZM43 144 43 135 55.9 135 55.1 144 43 144ZM43 148 54.8 148 54 157 43 157 43 148ZM39 148 39 157 27.9 157 27.1 148 39 148ZM39 131 25.8 131 25 122 39 122 39 131ZM43 122 57 122 56.2 131 43 131 43 122ZM22.8 144 10.8 144 9.3 135 22.1 135 22.8 144ZM26.1 135 39 135 39 144 26.8 144 26.1 135ZM73.4 131 60.3 131 61.1 122 75 122 73.4 131ZM63.2 116 63.2 116 46 98.7C44.7 97.4 42.9 96.6 41 96.6 39.1 96.6 37.4 97.3 36.1 98.7L18.9 115.9 18.8 116 0 116 7.4 159.7C7.7 161.6 9.4 163 11.3 163L70.5 163C72.4 163 74.1 161.6 74.4 159.7L82 116 63.2 116Z" fill="#8E44AD"/></g></svg>