<svg width="96" height="96" xmlns="http://www.w3.org/2000/svg" xmlns:xlink="http://www.w3.org/1999/xlink" xml:space="preserve" overflow="hidden"><g transform="translate(-108 -624)"><path d="M147.5 668.6C147.5 673.571 143.471 677.6 138.5 677.6 133.529 677.6 129.5 673.571 129.5 668.6 129.5 663.629 133.529 659.6 138.5 659.6 143.471 659.6 147.5 663.629 147.5 668.6Z" fill="#F39C12"/><path d="M180.5 712 180.5 703C180.537 701.575 179.862 700.225 178.7 699.4 176.11 697.372 173.105 695.939 169.9 695.2 167.497 694.477 165.009 694.074 162.5 694 159.986 694.008 157.488 694.413 155.1 695.2 151.94 696.065 148.96 697.487 146.3 699.4 145.172 700.254 144.506 701.585 144.5 703L144.5 712Z" fill="#F39C12"/><path d="M171.5 682.6C171.5 687.571 167.471 691.6 162.5 691.6 157.529 691.6 153.5 687.571 153.5 682.6 153.5 677.629 157.529 673.6 162.5 673.6 167.471 673.6 171.5 677.629 171.5 682.6Z" fill="#F39C12"/><path d="M143.9 696.2 143.9 696.2C146.708 694.196 149.812 692.644 153.1 691.6 150.826 689.23 149.539 686.084 149.5 682.8L149.5 682.4C148.332 681.911 147.128 681.509 145.9 681.2 143.497 680.477 141.009 680.074 138.5 680 135.986 680.008 133.488 680.413 131.1 681.2 127.972 682.149 125.005 683.565 122.3 685.4 121.138 686.225 120.463 687.575 120.5 689L120.5 698 142.1 698C142.596 697.304 143.204 696.696 143.9 696.2Z" fill="#F39C12"/><path d="M189.35 632 151.58 632C150.424 632.011 149.494 632.954 149.5 634.11L149.5 659.86C149.478 661.02 150.4 661.978 151.56 662 151.566 662 151.573 662 151.58 662L157.58 662 157.58 670.44 165.87 662 189.35 662C190.508 661.989 191.44 661.048 191.44 659.89L191.44 634.11C191.44 632.952 190.508 632.011 189.35 632ZM170.29 658.25C169.064 658.25 168.07 657.256 168.07 656.03 168.07 654.804 169.064 653.81 170.29 653.81 171.505 653.81 172.494 654.786 172.51 656 172.532 657.22 171.561 658.228 170.34 658.25 170.324 658.25 170.307 658.25 170.29 658.25ZM171.72 649.1 171.72 652.25 168.87 652.25 168.87 646.36 170.29 646.36C172.77 646.36 174.37 644.91 174.37 642.68 174.409 640.471 172.65 638.649 170.441 638.61 170.391 638.609 170.34 638.609 170.29 638.61 168.233 638.419 166.411 639.931 166.22 641.988 166.199 642.218 166.199 642.45 166.22 642.68L166.22 642.93 163.37 642.93 163.37 642.68C163.154 639.069 165.906 635.967 169.517 635.751 169.775 635.735 170.033 635.735 170.29 635.75 174.073 635.706 177.176 638.736 177.22 642.519 177.221 642.573 177.221 642.626 177.22 642.68 177.317 645.918 174.935 648.699 171.72 649.1Z" fill="#F39C12"/></g></svg>