<svg width="96" height="96" xmlns="http://www.w3.org/2000/svg" xmlns:xlink="http://www.w3.org/1999/xlink" xml:space="preserve" overflow="hidden"><g transform="translate(-221 -585)"><path d="M289 640 249 640C249 647 253.48 653.09 260 656.06L260 674 278 674 278 656.06C284.52 653.09 289 647 289 640Z" fill="#46B1E1"/><path d="M247.09 604 249 625C249.37 627.87 250.89 631.68 256.33 632 253.413 627.179 251.912 621.634 252 616 252 608.84 254.24 602.4 257.77 598L246 598C244.895 598 244 598.895 244 600L244 602C244 603.105 244.895 604 246 604Z" fill="#46B1E1"/><path d="M292 598 280.23 598C283.76 602.4 286 608.84 286 616 286.088 621.634 284.587 627.179 281.67 632 287.11 631.71 288.67 627.9 289 625L290.91 604 292 604C293.105 604 294 603.105 294 602L294 600C294 598.895 293.105 598 292 598Z" fill="#46B1E1"/><path d="M290 632 276.77 632C279.94 628.35 282 622.55 282 616 282 605 276.17 596 269 596 261.83 596 256 605 256 616 256 622.55 258.06 628.35 261.23 632L248 632C246.895 632 246 632.895 246 634 246 635.105 246.895 636 248 636L290 636C291.105 636 292 635.105 292 634 292 632.895 291.105 632 290 632Z" fill="#46B1E1"/></g></svg>