<svg width="96" height="96" xmlns="http://www.w3.org/2000/svg" xmlns:xlink="http://www.w3.org/1999/xlink" xml:space="preserve" overflow="hidden"><g transform="translate(-119 -205)"><path d="M164.5 219C164.5 223.418 160.918 227 156.5 227 152.082 227 148.5 223.418 148.5 219 148.5 214.582 152.082 211 156.5 211 160.918 211 164.5 214.582 164.5 219Z" fill="#7FB3D5"/><path d="M183.6 274.3C180.9 283.9 172 291 161.5 291 148.8 291 138.5 280.7 138.5 268 138.5 267.5 138.5 267.1 138.5 266.6L136.1 258.8C135.1 261.7 134.5 264.7 134.5 267.9 134.5 282.8 146.6 294.9 161.5 294.9 172.5 294.9 182 288.3 186.2 278.8L183.6 274.3Z" fill="#7FB3D5"/><path d="M199 277 187 256C186.3 254.8 185 254 183.5 254L167.4 254 165.4 235.6C164.6 231.2 160.5 228.3 156.1 229.1 155.1 229.3 154.2 229.6 153.4 230.1L137.5 239.5C135.9 240.4 135.2 242.4 135.7 244.1L140.7 260.1C141.2 261.8 142.8 262.9 144.5 262.9 144.9 262.9 145.3 262.8 145.7 262.7 147.8 262 149 259.8 148.3 257.7L144.2 244.7 150.1 241.2 152.6 255.3C153.3 259.2 156.7 261.9 160.5 261.9L160.5 261.9 181.2 261.9 192 281C192.7 282.3 194.1 283 195.5 283 196.2 283 196.9 282.8 197.5 282.5 199.4 281.4 200.1 278.9 199 277Z" fill="#7FB3D5"/></g></svg>