<svg width="96" height="96" xmlns="http://www.w3.org/2000/svg" xmlns:xlink="http://www.w3.org/1999/xlink" xml:space="preserve" overflow="hidden"><g transform="translate(-226 -327)"><path d="M298.006 369 298.006 365 309.006 365C310.111 365 311.006 364.104 311.006 363L311.006 346C311.006 344.896 310.111 344 309.006 344L280.006 344C278.902 344 278.006 344.896 278.006 346L278.006 362.013C280.457 362.098 282.769 363.176 284.408 365L291.006 365 291.006 369ZM282.006 361 282.006 348 307.006 348 307.006 361Z" fill="#404040"/><path d="M243.198 406 247.573 378 258.716 378 260.001 372 236.006 372C234.349 372 233.006 373.343 233.006 375 233.006 376.657 234.349 378 236.006 378L241.501 378 237.126 406Z" fill="#404040"/><path d="M300.438 378 304.813 406 310.886 406 306.511 378 312.006 378C313.663 378 315.006 376.657 315.006 375 315.006 373.343 313.663 372 312.006 372L287.138 372 288.423 378Z" fill="#404040"/><path d="M237.006 346 237.006 363C237.006 364.104 237.901 365 239.006 365L250.006 365 250.006 369 257.006 369 257.006 365 262.73 365C264.435 363.099 266.866 362.008 269.42 362L270.006 362 270.006 346C270.006 344.896 269.11 344 268.006 344L239.006 344C237.901 344 237.006 344.896 237.006 346ZM241.006 348 266.006 348 266.006 361 241.006 361Z" fill="#404040"/><path d="M287.014 385.743 283.586 369.743C282.993 366.976 280.548 365 277.719 365L269.42 365C266.591 365 264.146 366.976 263.553 369.743L260.124 385.743C259.432 388.982 261.496 392.169 264.736 392.862 264.748 392.865 264.76 392.867 264.772 392.87L263.227 406 267.255 406 268.784 393 278.354 393 279.884 406 283.911 406 282.367 392.87C285.61 392.197 287.694 389.023 287.022 385.779 287.019 385.767 287.017 385.755 287.014 385.743Z" fill="#404040"/></g></svg>