<svg width="96" height="96" xmlns="http://www.w3.org/2000/svg" xmlns:xlink="http://www.w3.org/1999/xlink" xml:space="preserve" overflow="hidden"><g transform="translate(7 5)"><path d="M41 11C23.3 11 9 25.3 9 43 9 60.7 23.3 75 41 75 58.7 75 73 60.7 73 43 73 25.3 58.7 11 41 11ZM41 81C20 81 3 64 3 43 3 22 20 5 41 5 62 5 79 22 79 43 79 64 62 81 41 81Z" fill="#FF5733"/><path d="M61 35 49 35 49 23C49 20.8 47.2 19 45 19L37 19C34.8 19 33 20.8 33 23L33 35 21 35C18.8 35 17 36.8 17 39L17 47C17 49.2 18.8 51 21 51L33 51 33 63C33 65.2 34.8 67 37 67L45 67C47.2 67 49 65.2 49 63L49 51 61 51C63.2 51 65 49.2 65 47L65 39C65 36.8 63.2 35 61 35Z" fill="#FF5733"/></g></svg>