<svg width="96" height="96" xmlns="http://www.w3.org/2000/svg" xmlns:xlink="http://www.w3.org/1999/xlink" xml:space="preserve" overflow="hidden"><g transform="translate(-136 -75)"><path d="M184 91C166.3 91 152 105.3 152 123 152 140.7 166.3 155 184 155 201.7 155 216 140.7 216 123 216 105.3 201.7 91 184 91ZM184 161C163 161 146 144 146 123 146 102 163 85 184 85 205 85 222 102 222 123 222 144 205 161 184 161Z" fill="#FF0000"/><path d="M204 115 192 115 192 103C192 100.8 190.2 99 188 99L180 99C177.8 99 176 100.8 176 103L176 115 164 115C161.8 115 160 116.8 160 119L160 127C160 129.2 161.8 131 164 131L176 131 176 143C176 145.2 177.8 147 180 147L188 147C190.2 147 192 145.2 192 143L192 131 204 131C206.2 131 208 129.2 208 127L208 119C208 116.8 206.2 115 204 115Z" fill="#FF0000"/></g></svg>