<svg width="96" height="96" xmlns="http://www.w3.org/2000/svg" xmlns:xlink="http://www.w3.org/1999/xlink" xml:space="preserve" overflow="hidden"><g transform="matrix(1 0 0 1 0 -191)"><path d="M21.007 234.871 21.007 232.871 30.007 232.871C30.5593 232.871 31.007 232.423 31.007 231.871L31.007 231.871C31.007 231.319 30.5593 230.871 30.007 230.871L21.007 230.871 21.007 228.871 30.007 228.871C30.5593 228.871 31.007 228.423 31.007 227.871L31.007 227.871C31.007 227.319 30.5593 226.871 30.007 226.871L21.007 226.871 21.007 224.871 30.007 224.871C30.5593 224.871 31.007 224.423 31.007 223.871L31.007 223.871C31.007 223.319 30.5593 222.871 30.007 222.871L21.007 222.871 21.007 220.871 30.007 220.871C30.5593 220.871 31.007 220.423 31.007 219.871L31.007 219.871C31.007 219.319 30.5593 218.871 30.007 218.871L21.007 218.871 21.007 216.871 30.007 216.871C30.5593 216.871 31.007 216.423 31.007 215.871L31.007 215.871C31.007 215.319 30.5593 214.871 30.007 214.871L21.007 214.871 21.007 212.871 30.007 212.871C30.5593 212.871 31.007 212.423 31.007 211.871L31.007 211.871C31.007 211.319 30.5593 210.871 30.007 210.871L21.007 210.871 21.007 208.871 30.007 208.871C30.5593 208.871 31.007 208.423 31.007 207.871L31.007 207.871C31.007 207.319 30.5593 206.871 30.007 206.871L21.007 206.871 21.007 204.871 30.007 204.871C30.5593 204.871 31.007 204.423 31.007 203.871L31.007 203.871C31.007 203.319 30.5593 202.871 30.007 202.871L21.007 202.871 21.007 200.871 30.007 200.871C30.5593 200.871 31.007 200.423 31.007 199.871L31.007 199.871C31.007 199.319 30.5593 198.871 30.007 198.871L21.007 198.871 21.007 196.871 30.227 196.871C30.6578 196.871 31.007 196.522 31.007 196.091L31.007 195.811C31.008 195.282 30.5975 194.844 30.07 194.811L17.132 194C16.0296 193.931 15.0799 194.769 15.0109 195.871 15.0082 195.914 15.0069 195.957 15.007 196L15.007 282.45C15.007 283.306 15.701 284 16.557 284L16.557 284C17.372 284 18.0478 283.369 18.103 282.556L20.003 254.871 20.029 254.871C20.229 247.053 23.229 240.393 29.829 237.471 30.5444 237.151 31.0042 236.44 31.002 235.656L31.002 235.656C31.002 235.225 30.6528 234.876 30.222 234.876Z" fill="#C70039"/><path d="M78.215 196.835C77.8624 197.275 77.547 197.743 77.272 198.235 76.5355 199.083 75.4311 199.518 74.314 199.4L73.605 199.317C68.2476 198.898 63.5651 202.902 63.1464 208.259 62.8785 211.687 64.4393 215.001 67.252 216.978L60.971 235.8 54.691 216.979C59.235 213.855 60.3865 207.64 57.2629 203.096 54.1393 198.552 47.9236 197.4 43.3796 200.524 38.8356 203.647 37.6842 209.863 40.8077 214.407 42.7618 217.25 46.045 218.883 49.491 218.725L57.836 245.269 47.338 282.083C47.0798 282.871 47.5096 283.72 48.298 283.978 49.0864 284.236 49.9348 283.806 50.193 283.018L60.971 253.95 71.75 283.018C72.0082 283.806 72.8566 284.236 73.645 283.978 74.4334 283.72 74.8632 282.871 74.605 282.083L64.11 245.264 72.455 218.72C72.8423 218.738 73.2303 218.734 73.617 218.705 78.9776 218.27 82.9708 213.572 82.5361 208.212 82.3936 206.454 81.7762 204.768 80.75 203.333 79.5466 201.638 79.772 199.317 81.279 197.885 82.6783 196.591 84.5381 195.912 86.442 196 87.2698 196.032 87.967 195.387 87.9993 194.56 88.0047 194.421 87.9908 194.282 87.958 194.147 87.7814 193.478 87.1771 193.011 86.485 193.009 83.2932 192.91 80.2408 194.318 78.243 196.809ZM50.887 214.463C47.8728 215.45 44.629 213.807 43.6418 210.793 42.6547 207.778 44.298 204.535 47.3122 203.548 50.3264 202.56 53.5702 204.204 54.5574 207.218 55.0314 208.665 54.9111 210.241 54.223 211.6 53.5342 212.959 52.3344 213.988 50.887 214.463ZM61.136 246.357C60.3346 246.358 59.6846 245.708 59.684 244.907 59.6834 244.106 60.3326 243.456 61.134 243.455 61.9354 243.454 62.5854 244.104 62.586 244.905 62.586 244.906 62.586 244.906 62.586 244.907 62.5854 245.708 61.9366 246.356 61.136 246.357ZM78.3 210.792C77.3133 213.806 74.0702 215.449 71.0564 214.462 68.0426 213.476 66.3993 210.233 67.3861 207.219 68.3728 204.205 71.6159 202.562 74.6297 203.548 76.0769 204.022 77.2767 205.052 77.965 206.41 78.6526 207.769 78.7731 209.345 78.3 210.792Z" fill="#C70039"/></g></svg>