<svg width="96" height="96" xmlns="http://www.w3.org/2000/svg" xmlns:xlink="http://www.w3.org/1999/xlink" xml:space="preserve" overflow="hidden"><g transform="translate(-108 -93)"><path d="M189.8 125.8C188.6 121.8 186 118.4 182.4 116.3 182.4 116 182.4 115.7 182.4 115.4 182.5 108.6 176.9 103 170 103 167.9 103 166 103.5 164.3 104.4 162 101.1 158.3 99 154 99 148.5 99 143.8 102.6 142.1 107.6 140.3 106.6 138.2 106 136 106 129.1 106 123.5 111.6 123.5 118.5 123.5 121.1 124.3 123.5 125.7 125.5 119.2 127.2 114.5 133 114.5 140 114.5 148.3 121.2 155 129.5 155 130.7 155 131.9 154.8 133.1 154.6 137.9 156.8 148.5 163.2 149 170.5L148.6 180C148.6 180.5 148.4 181 148 181.4L147.1 182.3C146.5 183 146.9 184 147.8 184L158.8 184C159.6 184 160 183.2 159.7 182.5 159.7 182.5 159.2 181.5 158.9 181.2 158.6 180.8 158.3 180.4 158.3 179.8L157.9 167.7C157.9 167.6 158 167.5 158 167.5 158.8 163.9 163.6 161.5 168.7 159 173.8 156.5 179.8 153.5 181.7 148.3 182.9 148.7 184.2 149 185.6 149 192.2 149 197.6 143.6 197.6 137 197.5 131.9 194.3 127.5 189.8 125.8ZM153.8 156.3C153.5 153.8 152.9 150.8 151.7 147.9 154.2 147.6 156.5 146.8 158.5 145.6 156.4 149.2 154.8 153.1 153.8 156.3ZM138.7 151.8C140.5 150.4 142 148.5 143.1 146.4 144 146.8 144.9 147.2 145.9 147.4 148.5 151.7 149 156.6 149 159.7 145.8 156.3 141.7 153.6 138.7 151.8ZM166.4 154.5C163.5 155.9 160.5 157.4 158.1 159.2 159.4 155.1 161.7 148.9 165.3 144.4 167.8 146 170.8 146.9 174 146.9 175 146.9 175.9 146.8 176.8 146.6 175.7 149.7 171.8 151.8 166.4 154.5Z" fill="#239B56"/></g></svg>